<svg id="Layer_1" data-name="Layer 1" xmlns="http://www.w3.org/2000/svg" viewBox="0 0 576.53 200"><defs><style>.cls-1{fill:#121212;}.cls-2{fill:#fff;}</style></defs><path class="cls-1" d="M34.3,73.92c7.05,6.44,15.82,4.62,20.66-4.36-3.71-2.72-7.26-5-10.44-7.76a72.75,72.75,0,0,1-8.94-9c-6.25-7.66-6.49-14.43-1.22-22.78,2.16-3.41,5.21-6.5,6.39-10.2,1-3.3,1.38-8.08-.29-10.72-2.59-4.07-7.15-6.88-11.08-10.4C28.67.05,28.48.23,28.51.38A9.66,9.66,0,0,0,29,2.6c3.56,8.53,2.12,16-4.06,22.94-3.12,3.53-5.31,8-7.64,12.13-4.3,7.68-2.85,15,2.52,21.42A158.34,158.34,0,0,0,34.3,73.92Z" transform="translate(0 1.26)"/><path class="cls-1" d="M39.22,104.93c2.88-1.31,6.44.48,8,1.39A54.86,54.86,0,0,0,45.72,99c-.91-3.31-1.54-5.8-3.27-8.63A14,14,0,0,0,39,86.23a12.22,12.22,0,0,0-4.45-2.07,11.2,11.2,0,0,1,1.76,2.74,11.37,11.37,0,0,1,.94,3.4,21,21,0,0,0-10.79-4,22.7,22.7,0,0,1,2,3.09,22.9,22.9,0,0,1,1.72,4,13.18,13.18,0,0,0-2.27,0,13.58,13.58,0,0,0-3.15.68,7.71,7.71,0,0,1,2,2.19,7.91,7.91,0,0,1,1,2.46,14.49,14.49,0,0,0-2.84,1.3,13.93,13.93,0,0,0-2.16,1.59,6.38,6.38,0,0,1,3.35,3.1,21.44,21.44,0,0,1-3.43,1.71,21.75,21.75,0,0,1-4.55,1.23,15.39,15.39,0,0,1,3.49,2.36,15.74,15.74,0,0,1,2.5,2.88,11.35,11.35,0,0,1-2.05.94,10.93,10.93,0,0,1-2.95.58,64.29,64.29,0,0,1,4.46,7.73,66,66,0,0,1,2.91,7,7.56,7.56,0,0,1-2.45.4,7.3,7.3,0,0,1-2.45-.4,13,13,0,0,0,.87,2,28.65,28.65,0,0,0,4.24,5.38c.55.58,1.15,1.19,1,1.43,0,.05-.16.2-1.42-.13a14.7,14.7,0,0,1-2.3-.8A17.48,17.48,0,0,0,33.32,148a9.65,9.65,0,0,1-4.75,3.9,32.49,32.49,0,0,0,7.22,2.27,32.11,32.11,0,0,0,6.72.53,26.23,26.23,0,0,1-4.13-10.26,34.55,34.55,0,0,0-.81-4.8c-.74-2.7-1.43-3.37-2.68-6.92-1.56-4.42-1.26-5.56-1-6.15a5.5,5.5,0,0,1,2.92-2.71C33,114.73,35.1,106.79,39.22,104.93Z" transform="translate(0 1.26)"/><path class="cls-2" d="M46.74,129c-.93,10.31,4.74,14.53,18.86,18.84C60.52,140,57.15,131.25,46.74,129Z" transform="translate(0 1.26)"/><path class="cls-1" d="M152.7,130.87a53.41,53.41,0,0,0-8.67,3.31c-3.42,1.67-6.31,3.08-9.28,5.95-1.75,1.7-5.41,5.2-6.32,10.56-.49,2.88.26,3.65.11,6.23-.34,5.79-4.57,9.87-10.46,15.39a86.59,86.59,0,0,1-15.74,11.48,21.9,21.9,0,0,0,1.71-9c-.12-3.85-1.24-4-1.46-7.07-.54-7.49,5.71-13.58,8.17-20.94a35.48,35.48,0,0,0,.94-3.49,32.28,32.28,0,0,0,.62-4.82c1.05-2.69,2-4.79,2.63-6.18,1.15-2.49,1.84-3.72,1.34-5a4.12,4.12,0,0,0-2.58-2.13c.45-5.36,2.6-10.91.86-14.63-2.92-6.24-8.06-1.14-13.43.85,1.57-6.26,2.34-11.84,4.41-16.89,2.14-5.23,5.54-9.94,9.09-16.1-4.64,1.13-8.62,1.12-12-.54a14.71,14.71,0,0,1-6.89-7.52,30.21,30.21,0,0,1-6,11.67,8.65,8.65,0,0,1-1-1.45,8.16,8.16,0,0,1-1-3.42c-3.73,4.07-7.52,6.32-11.35,6.31S68.73,81.24,65,77.17A8,8,0,0,1,63,82a30.46,30.46,0,0,1-2.56-3.56,30,30,0,0,1-3.47-8.11A14.71,14.71,0,0,1,50,77.89c-3.36,1.66-7.34,1.67-12,.54,3.55,6.16,6.95,10.87,9.09,16.1,2.07,5,2.84,10.63,4.41,16.89-5.37-2-10.51-7.09-13.43-.85-1.74,3.72.4,9.27.86,14.63a4.12,4.12,0,0,0-2.58,2.13c-.5,1.28.19,2.51,1.34,5,.64,1.39,1.57,3.49,2.63,6.18a31,31,0,0,0,.62,4.82,35.48,35.48,0,0,0,.94,3.49c2.46,7.36,8.71,13.45,8.17,20.94-.22,3-1.34,3.22-1.46,7.07a21.9,21.9,0,0,0,1.71,9,86.59,86.59,0,0,1-15.74-11.48c-5.89-5.52-10.12-9.6-10.46-15.39-.15-2.58.6-3.35.11-6.23-.91-5.36-4.57-8.86-6.32-10.56-3-2.87-5.86-4.28-9.28-5.95A53.41,53.41,0,0,0,0,130.87c17.83,8.95,21.48,15.29,21.17,19.56-.16,2.22-1.47,4.82-.75,9A18.18,18.18,0,0,0,25,168.35c8.4,9.57,18.85,16.24,30.23,21.63A90.15,90.15,0,0,1,64.17,195a21.83,21.83,0,0,0,24.35,0A91.45,91.45,0,0,1,97.46,190c11.38-5.39,21.83-12.06,30.23-21.63a18.18,18.18,0,0,0,4.58-8.93c.73-4.17-.58-6.77-.74-9C131.21,146.16,134.87,139.82,152.7,130.87ZM46.74,129C57.15,131.25,60.52,140,65.6,147.86,51.48,143.55,45.81,139.33,46.74,129ZM87.1,147.86C92.18,140,95.55,131.25,106,129,106.89,139.33,101.21,143.55,87.1,147.86Z" transform="translate(0 1.26)"/><path class="cls-1" d="M118.4,73.92a158.34,158.34,0,0,0,14.48-14.83c5.36-6.39,6.82-13.74,2.52-21.42-2.33-4.18-4.52-8.6-7.65-12.13-6.17-7-7.62-14.41-4-22.94a9.66,9.66,0,0,0,.49-2.22c0-.15-.16-.33-.87-1.64-3.93,3.52-8.5,6.33-11.08,10.4-1.67,2.64-1.34,7.42-.29,10.72,1.18,3.7,4.23,6.79,6.38,10.2,5.28,8.35,5,15.12-1.21,22.78a72.75,72.75,0,0,1-8.94,9c-3.18,2.73-6.73,5-10.44,7.76C102.58,78.54,111.35,80.36,118.4,73.92Z" transform="translate(0 1.26)"/><path class="cls-1" d="M134.55,107.73A22,22,0,0,1,130,106.5a21.73,21.73,0,0,1-3.42-1.71,6.38,6.38,0,0,1,3.35-3.1,14.17,14.17,0,0,0-5-2.89,7.91,7.91,0,0,1,1-2.46,7.71,7.71,0,0,1,2-2.19,13.7,13.7,0,0,0-3.15-.68,13.18,13.18,0,0,0-2.27,0,22.38,22.38,0,0,1,3.74-7.13,21,21,0,0,0-10.79,4,11.61,11.61,0,0,1,.93-3.4,11.49,11.49,0,0,1,1.77-2.74,12.22,12.22,0,0,0-4.45,2.07,14,14,0,0,0-3.47,4.09c-1.73,2.83-2.36,5.32-3.27,8.63a54.86,54.86,0,0,0-1.48,7.37c1.54-.91,5.1-2.7,8-1.39,4.12,1.86,6.27,9.8,2.43,18.88a5.44,5.44,0,0,1,2.91,2.71c.24.59.55,1.73-1,6.15-1.25,3.55-1.94,4.22-2.68,6.92a34.55,34.55,0,0,0-.81,4.8,26.39,26.39,0,0,1-4.13,10.26,32.11,32.11,0,0,0,6.72-.53,32.49,32.49,0,0,0,7.22-2.27,9.51,9.51,0,0,1-3-1.86,9.25,9.25,0,0,1-1.71-2,17.85,17.85,0,0,0,7.05-6,17.42,17.42,0,0,0,2.26-4.81,14.16,14.16,0,0,1-2.29.8c-1.26.33-1.39.18-1.43.13-.14-.24.45-.85,1-1.43a28.24,28.24,0,0,0,4.23-5.38,11.91,11.91,0,0,0,.88-2,7.32,7.32,0,0,1-2.46.4,7.55,7.55,0,0,1-2.44-.4,62,62,0,0,1,2.91-7,65.69,65.69,0,0,1,4.45-7.73,10.87,10.87,0,0,1-2.94-.58,11,11,0,0,1-2.05-.94,15.4,15.4,0,0,1,6-5.24Z" transform="translate(0 1.26)"/><path class="cls-2" d="M106,129C95.55,131.25,92.18,140,87.1,147.86,101.21,143.55,106.89,139.33,106,129Z" transform="translate(0 1.26)"/><path class="cls-1" d="M173.89,58.29h31.84q28.31,0,28.3,22.36,0,11.09-9.69,18.44,14.06,6.12,14.06,21.85,0,12-8.28,19.2a23.69,23.69,0,0,1-8.67,4.77A45.53,45.53,0,0,1,209,146.27h-4.94V123.64h4.43q3.91,0,5.52-1a3.81,3.81,0,0,0,1.6-3.52q0-4.25-6.54-4.25h-5V91.42q7.19,0,7.19-5,0-4.58-6.48-4.57H200v64.39H173.89Z" transform="translate(0 1.26)"/><path class="cls-1" d="M275,58.29v88H248.93v-88Zm50,0-23.11,39.9,23,48.08H295.59l-19.83-48.6,22.46-39.38Z" transform="translate(0 1.26)"/><path class="cls-1" d="M395.27,58.29v57q0,15.08-8.95,24.11t-23.85,9q-14.82,0-22.69-8.77t-7.86-25.2V58.29H358v56.14q0,8.05,5.71,8,5.52,0,5.52-8V58.29Z" transform="translate(0 1.26)"/><path class="cls-1" d="M437.18,81.94v64.33H411.12v-88h33.44q15.29,0,23.69,7.6a27.9,27.9,0,0,1,9.37,21.6q0,13.33-11.62,22.49l15,36.29H453.68L441,117.91V95.28h2.06q8.22,0,8.21-7.09,0-6.24-9.5-6.25Z" transform="translate(0 1.26)"/><path class="cls-1" d="M531.28,56.1q18.62,0,31.93,13.6a44.86,44.86,0,0,1,13.32,32.55A44.68,44.68,0,0,1,563.12,135a46,46,0,0,1-65.15-.07,44.59,44.59,0,0,1-13.48-32.67A44.27,44.27,0,0,1,498.06,69.5Q511.64,56.11,531.28,56.1ZM530.51,82a18.15,18.15,0,0,0-13.67,5.93,20.89,20.89,0,0,0,0,28.61,18.76,18.76,0,0,0,27.34,0,21.12,21.12,0,0,0,0-28.69A18.19,18.19,0,0,0,530.51,82Z" transform="translate(0 1.26)"/></svg>